<svg width="26" height="29" viewBox="0 0 26 29" fill="none" xmlns="http://www.w3.org/2000/svg">
<g clip-path="url(#clip0_262_33)">
<path d="M11.9167 16.3975C11.9167 15.4038 12.6425 14.6018 13.5417 14.6018C14.4408 14.6018 15.1667 15.4038 15.1667 16.3975C15.1667 17.3911 14.4408 18.1931 13.5417 18.1931C12.6425 18.1931 11.9167 17.3911 11.9167 16.3975ZM13.5417 24.1787C14.4408 24.1787 15.1667 23.3767 15.1667 22.3831C15.1667 21.3894 14.4408 20.5874 13.5417 20.5874C12.6425 20.5874 11.9167 21.3894 11.9167 22.3831C11.9167 23.3767 12.6425 24.1787 13.5417 24.1787ZM18.9583 18.1931C19.8575 18.1931 20.5833 17.3911 20.5833 16.3975C20.5833 15.4038 19.8575 14.6018 18.9583 14.6018C18.0592 14.6018 17.3333 15.4038 17.3333 16.3975C17.3333 17.3911 18.0592 18.1931 18.9583 18.1931ZM18.9583 24.1787C19.8575 24.1787 20.5833 23.3767 20.5833 22.3831C20.5833 21.3894 19.8575 20.5874 18.9583 20.5874C18.0592 20.5874 17.3333 21.3894 17.3333 22.3831C17.3333 23.3767 18.0592 24.1787 18.9583 24.1787ZM26 5.13255V28.9672H0V8.61617C0 6.64092 1.4625 5.02481 3.25 5.02481H5.41667C7.20417 5.02481 8.66667 6.64092 8.66667 8.61617V9.81329H10.8333V3.82769C10.8333 1.85244 12.2958 0.236328 14.0833 0.236328H21.5692L26 5.13255ZM6.5 8.61617C6.5 7.95775 6.0125 7.41905 5.41667 7.41905H3.25C2.65417 7.41905 2.16667 7.95775 2.16667 8.61617V26.573H6.5V8.61617ZM23.8333 12.2075H8.66667V26.573H23.8333V12.2075ZM23.8333 9.81329V6.22193H20.5833V2.63057H14.0833C13.4875 2.63057 13 3.16927 13 3.82769V9.81329H23.8333Z" fill="#28CC9E"/>
</g>
<defs>
<clipPath id="clip0_262_33">
<rect width="26" height="28.7309" fill="white" transform="translate(0 0.236328)"/>
</clipPath>
</defs>
</svg>
