<svg width="29" height="28" viewBox="0 0 29 28" fill="none" xmlns="http://www.w3.org/2000/svg">
<path d="M14.7643 3.3546C18.5379 3.3546 18.9855 3.36809 20.4753 3.43333C22.0159 3.50082 23.6023 3.836 24.7247 4.9079C25.8578 5.98993 26.1981 7.49037 26.2688 8.96606C26.3371 10.3889 26.3512 10.8163 26.3512 14.4201C26.3512 18.0238 26.3371 18.4512 26.2688 19.8741C26.1993 21.3374 25.8401 22.8671 24.7247 23.9322C23.5917 25.0142 22.0218 25.3393 20.4753 25.4068C18.9855 25.472 18.5379 25.4855 14.7643 25.4855C10.9908 25.4855 10.5432 25.472 9.05333 25.4068C7.53283 25.3404 5.90987 24.9895 4.80394 23.9322C3.67682 22.8558 3.33055 21.3407 3.25989 19.8741C3.19157 18.4512 3.17744 18.0238 3.17744 14.4201C3.17744 10.8163 3.19157 10.3889 3.25989 8.96606C3.32937 7.50836 3.69213 5.96968 4.80394 4.9079C5.9346 3.82812 7.51163 3.50082 9.05333 3.43333C10.5432 3.36809 10.9908 3.3546 14.7643 3.3546ZM14.7643 0.922852C10.926 0.922852 10.4443 0.938598 8.93674 1.00383C6.75197 1.09944 4.58252 1.67982 3.00313 3.18813C1.41785 4.70207 0.816013 6.76939 0.715903 8.85471C0.647592 10.2944 0.631104 10.7544 0.631104 14.4201C0.631104 18.0857 0.647592 18.5457 0.715903 19.9854C0.816013 22.0696 1.4261 24.147 3.00313 25.652C4.58723 27.1648 6.75551 27.7407 8.93674 27.8363C10.4443 27.9015 10.926 27.9173 14.7643 27.9173C18.6027 27.9173 19.0844 27.9015 20.5919 27.8363C22.7755 27.7407 24.9473 27.1592 26.5255 25.652C28.112 24.1369 28.7127 22.0707 28.8128 19.9854C28.8811 18.5457 28.8976 18.0857 28.8976 14.4201C28.8976 10.7544 28.8811 10.2944 28.8128 8.85471C28.7127 6.76827 28.1038 4.69532 26.5255 3.18813C24.9438 1.67757 22.7696 1.09832 20.5919 1.00383C19.0844 0.938598 18.6027 0.922852 14.7643 0.922852Z" fill="#28CC9E"/>
<path d="M14.7645 7.48926C10.7565 7.48926 7.50708 10.5925 7.50708 14.4201C7.50708 18.2477 10.7565 21.3509 14.7645 21.3509C18.7724 21.3509 22.0219 18.2477 22.0219 14.4201C22.0219 10.5925 18.7724 7.48926 14.7645 7.48926ZM14.7645 18.9191C12.1628 18.9191 10.0534 16.9047 10.0534 14.4201C10.0534 11.9355 12.1628 9.921 14.7645 9.921C17.3662 9.921 19.4756 11.9355 19.4756 14.4201C19.4756 16.9047 17.3662 18.9191 14.7645 18.9191Z" fill="#28CC9E"/>
<path d="M22.309 8.8343C23.2457 8.8343 24.005 8.10915 24.005 7.21464C24.005 6.32012 23.2457 5.59497 22.309 5.59497C21.3724 5.59497 20.613 6.32012 20.613 7.21464C20.613 8.10915 21.3724 8.8343 22.309 8.8343Z" fill="#28CC9E"/>
</svg>
