<svg width="20" height="20" viewBox="0 0 20 20" fill="none" xmlns="http://www.w3.org/2000/svg">
<path d="M1 8H19M7 3H4.2C3.0799 3 2.51984 3 2.09202 3.21799C1.71569 3.40973 1.40973 3.71569 1.21799 4.09202C1 4.51984 1 5.0799 1 6.2V15.8C1 16.9201 1 17.4802 1.21799 17.908C1.40973 18.2843 1.71569 18.5903 2.09202 18.782C2.51984 19 3.0799 19 4.2 19H15.8C16.9201 19 17.4802 19 17.908 18.782C18.2843 18.5903 18.5903 18.2843 18.782 17.908C19 17.4802 19 16.9201 19 15.8V6.2C19 5.0799 19 4.51984 18.782 4.09202C18.5903 3.71569 18.2843 3.40973 17.908 3.21799C17.4802 3 16.9201 3 15.8 3H13M7 3H13M7 3V2.5C7 1.67157 6.32843 1 5.5 1C4.67157 1 4 1.67157 4 2.5V3M13 3V2.5C13 1.67157 13.6716 1 14.5 1C15.3284 1 16 1.67157 16 2.5V3" stroke="#28CC9E" stroke-width="2" stroke-linecap="round"/>
</svg>
