<svg width="16" height="20" viewBox="0 0 16 20" fill="none" xmlns="http://www.w3.org/2000/svg">
<path d="M4 7V5C4 2.79086 5.79086 1 8 1C10.2091 1 12 2.79086 12 5V7M10 13H6M8 15V11M4.2 19H11.8C12.9201 19 13.4802 19 13.908 18.782C14.2843 18.5903 14.5903 18.2843 14.782 17.908C15 17.4802 15 16.9201 15 15.8V10.2C15 9.07989 15 8.51984 14.782 8.09202C14.5903 7.71569 14.2843 7.40973 13.908 7.21799C13.4802 7 12.9201 7 11.8 7H4.2C3.0799 7 2.51984 7 2.09202 7.21799C1.71569 7.40973 1.40973 7.71569 1.21799 8.09202C1 8.51984 1 9.07989 1 10.2V15.8C1 16.9201 1 17.4802 1.21799 17.908C1.40973 18.2843 1.71569 18.5903 2.09202 18.782C2.51984 19 3.07989 19 4.2 19Z" stroke="#28CC9E" stroke-width="2" stroke-linecap="round"/>
</svg>
