<svg width="16" height="19" viewBox="0 0 16 19" fill="none" xmlns="http://www.w3.org/2000/svg">
<path d="M4 6.66667V4.77778C4 2.69137 5.79086 1 8 1C10.2091 1 12 2.69137 12 4.77778V6.66667M4.2 18H11.8C12.9201 18 13.4802 18 13.908 17.7941C14.2843 17.613 14.5903 17.3241 14.782 16.9686C15 16.5646 15 16.0357 15 14.9778V9.68889C15 8.63101 15 8.10207 14.782 7.69802C14.5903 7.3426 14.2843 7.05364 13.908 6.87254C13.4802 6.66667 12.9201 6.66667 11.8 6.66667H4.2C3.07989 6.66667 2.51984 6.66667 2.09202 6.87254C1.71569 7.05364 1.40973 7.3426 1.21799 7.69802C1 8.10207 1 8.63101 1 9.68889V14.9778C1 16.0357 1 16.5646 1.21799 16.9686C1.40973 17.3241 1.71569 17.613 2.09202 17.7941C2.51984 18 3.07989 18 4.2 18Z" stroke="#28CC9E" stroke-width="2" stroke-linecap="round"/>
</svg>
