<svg width="25" height="29" viewBox="0 0 25 29" fill="none" xmlns="http://www.w3.org/2000/svg">
<g clip-path="url(#clip0_262_31)">
<path d="M14.7919 19.4369C11.7589 18.0178 9.34713 15.3465 8.06999 11.9917L11.6117 8.07117L5.09083 0.85967L1.7877 4.50858C1.21479 5.1453 0.761815 5.90123 0.454994 6.73264C0.148174 7.56406 -0.00640439 8.45446 0.000203231 9.35232C0.000203231 17.6953 9.6377 28.3451 17.1877 28.3451C18.0001 28.3529 18.8059 28.1824 19.5582 27.8433C20.3105 27.5042 20.9943 27.0034 21.57 26.3698L24.8731 22.7198L18.3471 15.5083L14.7919 19.4369ZM20.096 24.7422C19.7135 25.1613 19.2594 25.492 18.7601 25.7154C18.2608 25.9387 17.7263 26.05 17.1877 26.0429C10.695 26.0429 2.08354 16.527 2.08354 9.35232C2.0774 8.75702 2.17829 8.16629 2.38035 7.61441C2.58241 7.06253 2.88162 6.56047 3.26062 6.13736L5.09083 4.11492L8.67104 8.07117L5.61374 11.4496L5.86895 12.1563C6.62025 14.3771 7.79475 16.3935 9.31286 18.0689C10.831 19.7443 12.6572 21.0395 14.6679 21.8668L15.2992 22.1327L18.3471 18.7635L21.9273 22.7198L20.096 24.7422ZM14.5835 3.02139V0.719238C17.3453 0.72259 19.993 1.9364 21.9459 4.09437C23.8987 6.25233 24.9972 9.17819 25.0002 12.23H22.9169C22.9144 9.78857 22.0356 7.44792 20.4734 5.72156C18.9111 3.99521 16.7929 3.02413 14.5835 3.02139ZM14.5835 7.6257V5.32355C16.2406 5.32538 17.8294 6.05361 19.0011 7.34842C20.1729 8.64324 20.8319 10.3989 20.8335 12.23H18.7502C18.7502 11.0089 18.3112 9.83775 17.5298 8.97427C16.7484 8.1108 15.6886 7.6257 14.5835 7.6257Z" fill="#28CC9E"/>
</g>
<defs>
<clipPath id="clip0_262_31">
<rect width="25" height="27.6259" fill="white" transform="translate(0 0.719238)"/>
</clipPath>
</defs>
</svg>
