<svg width="32" height="36" viewBox="0 0 32 36" fill="none" xmlns="http://www.w3.org/2000/svg">
<g clip-path="url(#clip0_262_27)">
<path d="M15.9441 35.5455L15.0147 34.6651C13.7333 33.4796 2.54541 22.8024 2.54541 14.9923C2.54541 6.81517 8.54422 0.186279 15.9441 0.186279C23.344 0.186279 29.3428 6.81517 29.3428 14.9923C29.3428 22.8025 18.1548 33.4796 16.8788 34.671L15.9441 35.5455ZM15.9441 3.38777C10.147 3.39502 5.44922 8.58626 5.44266 14.9922C5.44266 19.8987 12.3259 27.7367 15.9441 31.3241C19.5623 27.7353 26.4455 19.8928 26.4455 14.9922C26.439 8.58626 21.7412 3.39509 15.9441 3.38777Z" fill="#28CC9E"/>
<path d="M15.9442 20.8612C13.0109 20.8612 10.6331 18.2336 10.6331 14.9923C10.6331 11.7509 13.0109 9.12329 15.9442 9.12329C18.8774 9.12329 21.2553 11.7509 21.2553 14.9923C21.2553 18.2336 18.8775 20.8612 15.9442 20.8612ZM15.9442 12.0577C14.4776 12.0577 13.2886 13.3715 13.2886 14.9922C13.2886 16.6129 14.4776 17.9267 15.9442 17.9267C17.4108 17.9267 18.5997 16.6129 18.5997 14.9922C18.5997 13.3715 17.4109 12.0577 15.9442 12.0577Z" fill="#28CC9E"/>
</g>
<defs>
<clipPath id="clip0_262_27">
<rect width="32" height="35.3611" fill="white" transform="translate(0 0.172607)"/>
</clipPath>
</defs>
</svg>
