<svg width="25" height="29" viewBox="0 0 25 29" fill="none" xmlns="http://www.w3.org/2000/svg">
<g clip-path="url(#clip0_262_25)">
<mask id="path-1-inside-1_262_25" fill="white">
<path d="M19.7917 1.93408H5.20833C3.82751 1.93591 2.50371 2.54287 1.52731 3.62181C0.550919 4.70076 0.00165402 6.16361 0 7.68947L0 21.5024C0.00165402 23.0283 0.550919 24.4911 1.52731 25.57C2.50371 26.649 3.82751 27.256 5.20833 27.2578H19.7917C21.1725 27.256 22.4963 26.649 23.4727 25.57C24.4491 24.4911 24.9983 23.0283 25 21.5024V7.68947C24.9983 6.16361 24.4491 4.70076 23.4727 3.62181C22.4963 2.54287 21.1725 1.93591 19.7917 1.93408ZM5.20833 4.23624H19.7917C20.4154 4.23759 21.0245 4.44517 21.5406 4.83227C22.0567 5.21936 22.4561 5.76826 22.6875 6.40832L14.7104 15.2244C14.1234 15.8705 13.3286 16.2333 12.5 16.2333C11.6714 16.2333 10.8766 15.8705 10.2896 15.2244L2.3125 6.40832C2.5439 5.76826 2.94335 5.21936 3.45942 4.83227C3.9755 4.44517 4.5846 4.23759 5.20833 4.23624ZM19.7917 24.9556H5.20833C4.37953 24.9556 3.58468 24.5918 2.99862 23.9442C2.41257 23.2966 2.08333 22.4182 2.08333 21.5024V9.41608L8.81667 16.852C9.7944 17.9297 11.119 18.535 12.5 18.535C13.881 18.535 15.2056 17.9297 16.1833 16.852L22.9167 9.41608V21.5024C22.9167 22.4182 22.5874 23.2966 22.0014 23.9442C21.4153 24.5918 20.6205 24.9556 19.7917 24.9556Z"/>
</mask>
<path d="M19.7917 1.93408H5.20833C3.82751 1.93591 2.50371 2.54287 1.52731 3.62181C0.550919 4.70076 0.00165402 6.16361 0 7.68947L0 21.5024C0.00165402 23.0283 0.550919 24.4911 1.52731 25.57C2.50371 26.649 3.82751 27.256 5.20833 27.2578H19.7917C21.1725 27.256 22.4963 26.649 23.4727 25.57C24.4491 24.4911 24.9983 23.0283 25 21.5024V7.68947C24.9983 6.16361 24.4491 4.70076 23.4727 3.62181C22.4963 2.54287 21.1725 1.93591 19.7917 1.93408ZM5.20833 4.23624H19.7917C20.4154 4.23759 21.0245 4.44517 21.5406 4.83227C22.0567 5.21936 22.4561 5.76826 22.6875 6.40832L14.7104 15.2244C14.1234 15.8705 13.3286 16.2333 12.5 16.2333C11.6714 16.2333 10.8766 15.8705 10.2896 15.2244L2.3125 6.40832C2.5439 5.76826 2.94335 5.21936 3.45942 4.83227C3.9755 4.44517 4.5846 4.23759 5.20833 4.23624ZM19.7917 24.9556H5.20833C4.37953 24.9556 3.58468 24.5918 2.99862 23.9442C2.41257 23.2966 2.08333 22.4182 2.08333 21.5024V9.41608L8.81667 16.852C9.7944 17.9297 11.119 18.535 12.5 18.535C13.881 18.535 15.2056 17.9297 16.1833 16.852L22.9167 9.41608V21.5024C22.9167 22.4182 22.5874 23.2966 22.0014 23.9442C21.4153 24.5918 20.6205 24.9556 19.7917 24.9556Z" fill="#28CC9E"/>
<path d="M19.7917 1.93408L19.7983 -3.06592H19.7917V1.93408ZM5.20833 1.93408V-3.06592L5.20171 -3.06591L5.20833 1.93408ZM0 7.68947L-5 7.68405V7.68947H0ZM0 21.5024H-5L-5 21.5078L0 21.5024ZM5.20833 27.2578L5.20171 32.2578H5.20833V27.2578ZM19.7917 27.2578V32.2578L19.7983 32.2578L19.7917 27.2578ZM25 21.5024L30 21.5078V21.5024H25ZM25 7.68947H30L30 7.68405L25 7.68947ZM5.20833 4.23624V-0.763776L5.19747 -0.763752L5.20833 4.23624ZM19.7917 4.23624L19.8025 -0.763764H19.7917V4.23624ZM22.6875 6.40832L26.3951 9.76303L28.4114 7.53458L27.3896 4.70833L22.6875 6.40832ZM14.7104 15.2244L18.4111 18.5868L18.418 18.5791L14.7104 15.2244ZM10.2896 15.2244L6.58202 18.5791L6.58896 18.5868L10.2896 15.2244ZM2.3125 6.40832L-2.38963 4.70833L-3.41142 7.53458L-1.39505 9.76303L2.3125 6.40832ZM19.7917 24.9556V29.9556V24.9556ZM5.20833 24.9556V29.9556V24.9556ZM2.08333 21.5024H-2.91667H2.08333ZM2.08333 9.41608L5.78963 6.05999L-2.91667 -3.55481V9.41608H2.08333ZM8.81667 16.852L5.11036 20.2081L5.11356 20.2117L8.81667 16.852ZM12.5 18.535V13.535V18.535ZM16.1833 16.852L19.8864 20.2117L19.8896 20.2081L16.1833 16.852ZM22.9167 9.41608H27.9167V-3.55481L19.2104 6.05999L22.9167 9.41608ZM22.9167 21.5024H27.9167H22.9167ZM19.7917 -3.06592H5.20833V6.93408H19.7917V-3.06592ZM5.20171 -3.06591C2.32698 -3.06211 -0.314813 -1.79425 -2.18002 0.266865L5.23465 6.97676C5.28072 6.92584 5.30772 6.91555 5.30004 6.91907C5.29676 6.92058 5.28709 6.92455 5.27116 6.92809C5.25503 6.93167 5.23576 6.93405 5.21495 6.93408L5.20171 -3.06591ZM-2.18002 0.266865C-4.03034 2.31153 -4.99707 4.98609 -5 7.68405L5 7.69489C5.00038 7.34112 5.13218 7.08999 5.23465 6.97676L-2.18002 0.266865ZM-5 7.68947V21.5024H5V7.68947H-5ZM-5 21.5078C-4.99707 24.2058 -4.03034 26.8803 -2.18002 28.925L5.23465 22.2151C5.13218 22.1019 5.00038 21.8507 5 21.497L-5 21.5078ZM-2.18002 28.925C-0.314811 30.9861 2.32699 32.254 5.20171 32.2578L5.21495 22.2578C5.23576 22.2578 5.25503 22.2602 5.27116 22.2638C5.28709 22.2673 5.29676 22.2713 5.30004 22.2728C5.30772 22.2763 5.28072 22.266 5.23465 22.2151L-2.18002 28.925ZM5.20833 32.2578H19.7917V22.2578H5.20833V32.2578ZM19.7983 32.2578C22.673 32.254 25.3148 30.9861 27.18 28.925L19.7654 22.2151C19.7193 22.266 19.6923 22.2763 19.7 22.2728C19.7032 22.2713 19.7129 22.2673 19.7288 22.2638C19.745 22.2602 19.7642 22.2578 19.785 22.2578L19.7983 32.2578ZM27.18 28.925C29.0303 26.8803 29.9971 24.2058 30 21.5078L20 21.497C19.9996 21.8507 19.8678 22.1019 19.7654 22.2151L27.18 28.925ZM30 21.5024V7.68947H20V21.5024H30ZM30 7.68405C29.9971 4.98609 29.0303 2.31153 27.18 0.266865L19.7654 6.97676C19.8678 7.08999 19.9996 7.34112 20 7.69489L30 7.68405ZM27.18 0.266865C25.3148 -1.79425 22.673 -3.06211 19.7983 -3.06591L19.785 6.93408C19.7642 6.93405 19.745 6.93167 19.7288 6.92809C19.7129 6.92455 19.7032 6.92058 19.7 6.91907C19.6923 6.91555 19.7193 6.92585 19.7654 6.97676L27.18 0.266865ZM5.20833 9.23624H19.7917V-0.763764H5.20833V9.23624ZM19.7808 9.23622C19.2873 9.23515 18.8551 9.06821 18.5404 8.83213L24.5408 0.832406C23.1939 -0.177864 21.5435 -0.759968 19.8025 -0.763752L19.7808 9.23622ZM18.5404 8.83213C18.2334 8.60183 18.066 8.33129 17.9854 8.10831L27.3896 4.70833C26.8462 3.20523 25.88 1.8369 24.5408 0.832406L18.5404 8.83213ZM18.9799 3.05361L11.0029 11.8697L18.418 18.5791L26.3951 9.76303L18.9799 3.05361ZM11.0098 11.8621C11.313 11.5284 11.8362 11.2333 12.5 11.2333V21.2333C14.8209 21.2333 16.9337 20.2127 18.411 18.5868L11.0098 11.8621ZM12.5 11.2333C13.1638 11.2333 13.687 11.5284 13.9902 11.8621L6.58896 18.5868C8.06628 20.2127 10.1791 21.2333 12.5 21.2333V11.2333ZM13.9971 11.8697L6.02005 3.05361L-1.39505 9.76303L6.58203 18.5791L13.9971 11.8697ZM7.01463 8.10831C6.93401 8.33129 6.76665 8.60183 6.45961 8.83213L0.459241 0.832406C-0.879956 1.8369 -1.84621 3.20523 -2.38963 4.70833L7.01463 8.10831ZM6.45961 8.83213C6.14486 9.06821 5.71266 9.23515 5.2192 9.23622L5.19747 -0.763752C3.45653 -0.759968 1.80614 -0.177864 0.459241 0.832406L6.45961 8.83213ZM19.7917 19.9556H5.20833V29.9556H19.7917V19.9556ZM5.20833 19.9556C5.87591 19.9556 6.40177 20.2531 6.70596 20.5892L-0.708708 27.2991C0.767585 28.9305 2.88315 29.9556 5.20833 29.9556V19.9556ZM6.70596 20.5892C6.99517 20.9088 7.08333 21.2444 7.08333 21.5024H-2.91667C-2.91667 23.5921 -2.17002 25.6843 -0.708708 27.2991L6.70596 20.5892ZM7.08333 21.5024V9.41608H-2.91667V21.5024H7.08333ZM-1.62297 12.7722L5.11037 20.2081L12.523 13.496L5.78963 6.05999L-1.62297 12.7722ZM5.11356 20.2117C6.98156 22.2706 9.62519 23.535 12.5 23.535V13.535C12.5207 13.535 12.54 13.5373 12.5561 13.5409C12.572 13.5444 12.5817 13.5483 12.585 13.5499C12.5928 13.5534 12.5658 13.5432 12.5198 13.4924L5.11356 20.2117ZM12.5 23.535C15.3748 23.535 18.0184 22.2706 19.8864 20.2117L12.4802 13.4924C12.4342 13.5432 12.4072 13.5534 12.415 13.5499C12.4183 13.5483 12.428 13.5444 12.4439 13.5409C12.46 13.5373 12.4793 13.535 12.5 13.535L12.5 23.535ZM19.8896 20.2081L26.623 12.7722L19.2104 6.05999L12.477 13.496L19.8896 20.2081ZM17.9167 9.41608V21.5024H27.9167V9.41608H17.9167ZM17.9167 21.5024C17.9167 21.2444 18.0048 20.9088 18.294 20.5892L25.7087 27.2991C27.17 25.6843 27.9167 23.5921 27.9167 21.5024H17.9167ZM18.294 20.5892C18.5982 20.2531 19.1241 19.9556 19.7917 19.9556V29.9556C22.1168 29.9556 24.2324 28.9305 25.7087 27.2991L18.294 20.5892Z" fill="#28CC9E" mask="url(#path-1-inside-1_262_25)"/>
</g>
<defs>
<clipPath id="clip0_262_25">
<rect width="25" height="27.6259" fill="white" transform="translate(0 0.782959)"/>
</clipPath>
</defs>
</svg>
