<svg width="31" height="20" viewBox="0 0 31 20" fill="none" xmlns="http://www.w3.org/2000/svg">
<g clip-path="url(#clip0_262_23)">
<path d="M27.778 5.81232C27.7957 5.98264 27.7957 6.15377 27.7957 6.32571C27.7957 11.5783 21.5443 17.6349 10.1165 17.6349V17.6316C6.74097 17.6349 3.43481 17.0165 0.593018 15.8501C1.0839 15.888 1.5773 15.9066 2.07196 15.9074C4.87084 15.909 7.58897 15.3085 9.78845 14.2026C7.12964 14.1703 4.79766 13.0612 3.98373 11.4419C4.91501 11.5565 5.87405 11.5331 6.78893 11.3741C3.88909 10.9995 1.80444 9.36974 1.80444 7.47761C1.80444 7.46066 1.80444 7.44371 1.80444 7.42757C2.66884 7.73592 3.63545 7.90625 4.62478 7.92481C1.89403 6.75838 1.05109 4.4352 2.70038 2.61896C5.85512 5.10197 10.5103 6.61147 15.5061 6.7721C15.0051 5.39176 15.6903 3.94522 17.303 2.97413C19.8054 1.46867 23.7412 1.54616 26.0947 3.14688C27.4865 2.97171 28.8204 2.64479 30.0406 2.18225C29.5762 3.10248 28.6058 3.88387 27.3086 4.38112C28.5415 4.28667 29.7441 4.07599 30.8785 3.75472C30.0444 4.55306 28.9945 5.24969 27.778 5.81232Z" fill="#28CC9E"/>
</g>
<defs>
<clipPath id="clip0_262_23">
<rect width="30.2855" height="19.3733" fill="white" transform="translate(0.593018 0.0778809)"/>
</clipPath>
</defs>
</svg>
